<?xml version="1.0" standalone="no"?>
<!DOCTYPE svg PUBLIC "-//W3C//DTD SVG 20010904//EN"
 "http://www.w3.org/TR/2001/REC-SVG-20010904/DTD/svg10.dtd">
<svg version="1.0" xmlns="http://www.w3.org/2000/svg"
 width="260.000000pt" height="260.000000pt" viewBox="0 0 260.000000 260.000000"
 preserveAspectRatio="xMidYMid meet">
<metadata>
Created by potrace 1.11, written by Peter Selinger 2001-2013
</metadata>
<g transform="translate(0.000000,260.000000) scale(0.100000,-0.100000)"
fill="#000000" stroke="none">
<path d="M1365 2520 c-60 -4 -128 -12 -150 -18 -126 -31 -269 -79 -330 -109
-99 -50 -240 -149 -305 -213 -66 -66 -179 -232 -215 -315 -14 -33 -32 -72 -41
-87 -26 -47 -44 -158 -44 -272 0 -61 -5 -136 -12 -168 -9 -45 -9 -90 0 -205
15 -182 22 -214 73 -333 74 -172 190 -316 377 -469 145 -118 217 -159 361
-203 125 -39 129 -39 361 -49 249 -11 334 -8 415 16 164 47 315 114 367 163
45 42 45 72 0 155 -57 105 -170 274 -210 314 -39 39 -33 40 -152 -12 -130 -58
-200 -74 -320 -74 -193 -1 -309 48 -456 194 -72 71 -103 112 -148 193 -69 123
-83 192 -67 321 22 176 99 329 226 449 116 111 227 158 395 169 137 8 263 -10
320 -45 72 -45 94 -47 129 -15 32 30 107 157 185 315 36 72 47 103 42 123 -8
33 -79 77 -160 100 -33 9 -97 28 -141 40 -152 45 -250 51 -500 35z"/>
</g>
</svg>
